M48
; DRILL file {KiCad 6.0.11+dfsg-1} date Сб 27 янв 2024 16:43:56
; FORMAT={-:-/ absolute / inch / decimal}
; #@! TF.CreationDate,2024-01-27T16:43:56+03:00
; #@! TF.GenerationSoftware,Kicad,Pcbnew,6.0.11+dfsg-1
; #@! TF.FileFunction,Plated,1,2,PTH
FMAT,2
INCH
; #@! TA.AperFunction,Plated,PTH,ViaDrill
T1C0.0197
; #@! TA.AperFunction,Plated,PTH,ComponentDrill
T2C0.0354
; #@! TA.AperFunction,Plated,PTH,ComponentDrill
T3C0.0374
; #@! TA.AperFunction,Plated,PTH,ComponentDrill
T4C0.0394
; #@! TA.AperFunction,Plated,PTH,ComponentDrill
T5C0.0472
%
G90
G05
T1
X9.8008Y-3.0603
X10.4358Y-2.7853
T2
X9.4624Y-1.9837
X9.4624Y-2.7711
X10.2498Y-2.1806
X10.2498Y-2.5743
T3
X9.6721Y-1.6153
X9.7706Y-1.6153
X9.869Y-1.6153
X9.9674Y-1.6153
X10.0658Y-1.6153
T4
X9.6408Y-3.1366
X9.6408Y-3.3335
X9.9196Y-3.1731
X9.9196Y-3.6535
X10.1558Y-3.0944
X10.392Y-3.1731
X10.392Y-3.6535
T5
X9.3661Y-1.1774
X9.3661Y-4.1538
X9.5661Y-1.1774
X9.5661Y-4.1538
X9.9661Y-4.1538
X10.1661Y-1.1774
X10.1661Y-4.1538
X10.3661Y-1.1774
X10.3661Y-4.1538
T0
M30
