%TF.GenerationSoftware,KiCad,Pcbnew,6.0.11+dfsg-1*%
%TF.CreationDate,2024-01-27T16:44:02+03:00*%
%TF.ProjectId,power,706f7765-722e-46b6-9963-61645f706362,rev?*%
%TF.SameCoordinates,Original*%
%TF.FileFunction,Legend,Top*%
%TF.FilePolarity,Positive*%
%FSLAX46Y46*%
G04 Gerber Fmt 4.6, Leading zero omitted, Abs format (unit mm)*
G04 Created by KiCad (PCBNEW 6.0.11+dfsg-1) date 2024-01-27 16:44:02*
%MOMM*%
%LPD*%
G01*
G04 APERTURE LIST*
%ADD10C,0.150000*%
%TA.AperFunction,Profile*%
%ADD11C,0.100000*%
%TD*%
%ADD12C,0.120000*%
%ADD13C,3.000000*%
%ADD14C,2.500000*%
G04 APERTURE END LIST*
D10*
X234198000Y-97006000D02*
X266998000Y-97006000D01*
X266998000Y-97006000D02*
X266998000Y-38406000D01*
X266998000Y-38406000D02*
X234198000Y-38406000D01*
X234198000Y-38406000D02*
X234198000Y-97006000D01*
D11*
X234198000Y-111156000D02*
X266998000Y-111156000D01*
X266998000Y-111156000D02*
X266998000Y-24256000D01*
X266998000Y-24256000D02*
X234198000Y-24256000D01*
X234198000Y-24256000D02*
X234198000Y-111156000D01*
D10*
%TO.C,P3*%
X246043904Y-30431380D02*
X246043904Y-29431380D01*
X246424857Y-29431380D01*
X246520095Y-29479000D01*
X246567714Y-29526619D01*
X246615333Y-29621857D01*
X246615333Y-29764714D01*
X246567714Y-29859952D01*
X246520095Y-29907571D01*
X246424857Y-29955190D01*
X246043904Y-29955190D01*
X246948666Y-29431380D02*
X247567714Y-29431380D01*
X247234380Y-29812333D01*
X247377238Y-29812333D01*
X247472476Y-29859952D01*
X247520095Y-29907571D01*
X247567714Y-30002809D01*
X247567714Y-30240904D01*
X247520095Y-30336142D01*
X247472476Y-30383761D01*
X247377238Y-30431380D01*
X247091523Y-30431380D01*
X246996285Y-30383761D01*
X246948666Y-30336142D01*
%TO.C,P1*%
X239699904Y-109133380D02*
X239699904Y-108133380D01*
X240080857Y-108133380D01*
X240176095Y-108181000D01*
X240223714Y-108228619D01*
X240271333Y-108323857D01*
X240271333Y-108466714D01*
X240223714Y-108561952D01*
X240176095Y-108609571D01*
X240080857Y-108657190D01*
X239699904Y-108657190D01*
X241223714Y-109133380D02*
X240652285Y-109133380D01*
X240938000Y-109133380D02*
X240938000Y-108133380D01*
X240842761Y-108276238D01*
X240747523Y-108371476D01*
X240652285Y-108419095D01*
%TO.C,J1*%
X259910666Y-40226380D02*
X259910666Y-40940666D01*
X259863047Y-41083523D01*
X259767809Y-41178761D01*
X259624952Y-41226380D01*
X259529714Y-41226380D01*
X260910666Y-41226380D02*
X260339238Y-41226380D01*
X260624952Y-41226380D02*
X260624952Y-40226380D01*
X260529714Y-40369238D01*
X260434476Y-40464476D01*
X260339238Y-40512095D01*
%TO.C,C1*%
X248282142Y-83993666D02*
X248329761Y-84041285D01*
X248377380Y-84184142D01*
X248377380Y-84279380D01*
X248329761Y-84422238D01*
X248234523Y-84517476D01*
X248139285Y-84565095D01*
X247948809Y-84612714D01*
X247805952Y-84612714D01*
X247615476Y-84565095D01*
X247520238Y-84517476D01*
X247425000Y-84422238D01*
X247377380Y-84279380D01*
X247377380Y-84184142D01*
X247425000Y-84041285D01*
X247472619Y-83993666D01*
X248377380Y-83041285D02*
X248377380Y-83612714D01*
X248377380Y-83327000D02*
X247377380Y-83327000D01*
X247520238Y-83422238D01*
X247615476Y-83517476D01*
X247663095Y-83612714D01*
%TO.C,P4*%
X253790904Y-30431380D02*
X253790904Y-29431380D01*
X254171857Y-29431380D01*
X254267095Y-29479000D01*
X254314714Y-29526619D01*
X254362333Y-29621857D01*
X254362333Y-29764714D01*
X254314714Y-29859952D01*
X254267095Y-29907571D01*
X254171857Y-29955190D01*
X253790904Y-29955190D01*
X255219476Y-29764714D02*
X255219476Y-30431380D01*
X254981380Y-29383761D02*
X254743285Y-30098047D01*
X255362333Y-30098047D01*
%TO.C,P2*%
X257479904Y-109133380D02*
X257479904Y-108133380D01*
X257860857Y-108133380D01*
X257956095Y-108181000D01*
X258003714Y-108228619D01*
X258051333Y-108323857D01*
X258051333Y-108466714D01*
X258003714Y-108561952D01*
X257956095Y-108609571D01*
X257860857Y-108657190D01*
X257479904Y-108657190D01*
X258432285Y-108228619D02*
X258479904Y-108181000D01*
X258575142Y-108133380D01*
X258813238Y-108133380D01*
X258908476Y-108181000D01*
X258956095Y-108228619D01*
X259003714Y-108323857D01*
X259003714Y-108419095D01*
X258956095Y-108561952D01*
X258384666Y-109133380D01*
X259003714Y-109133380D01*
%TO.C,K1*%
X249492571Y-89633142D02*
X247992571Y-89633142D01*
X249492571Y-88776000D02*
X248635428Y-89418857D01*
X247992571Y-88776000D02*
X248849714Y-89633142D01*
X249492571Y-87347428D02*
X249492571Y-88204571D01*
X249492571Y-87776000D02*
X247992571Y-87776000D01*
X248206857Y-87918857D01*
X248349714Y-88061714D01*
X248421142Y-88204571D01*
%TO.C,TR1*%
X265623619Y-57600095D02*
X265623619Y-58171523D01*
X264623619Y-57885809D02*
X265623619Y-57885809D01*
X264623619Y-59076285D02*
X265099809Y-58742952D01*
X264623619Y-58504857D02*
X265623619Y-58504857D01*
X265623619Y-58885809D01*
X265576000Y-58981047D01*
X265528380Y-59028666D01*
X265433142Y-59076285D01*
X265290285Y-59076285D01*
X265195047Y-59028666D01*
X265147428Y-58981047D01*
X265099809Y-58885809D01*
X265099809Y-58504857D01*
X264623619Y-60028666D02*
X264623619Y-59457238D01*
X264623619Y-59742952D02*
X265623619Y-59742952D01*
X265480761Y-59647714D01*
X265385523Y-59552476D01*
X265337904Y-59457238D01*
%TO.C,P3*%
X245518000Y-35006000D02*
X245518000Y-24806000D01*
X245518000Y-35006000D02*
X235358000Y-35006000D01*
X235358000Y-24806000D02*
X235358000Y-35006000D01*
X245518000Y-24806000D02*
X235358000Y-24806000D01*
%TO.C,P1*%
X235358000Y-110606000D02*
X245518000Y-110606000D01*
X235358000Y-100406000D02*
X235358000Y-110606000D01*
X235358000Y-100406000D02*
X245518000Y-100406000D01*
X245518000Y-110606000D02*
X245518000Y-100406000D01*
D12*
%TO.C,J1*%
X258582000Y-40918000D02*
X258582000Y-38418000D01*
X257782000Y-41028000D02*
X257782000Y-42238000D01*
X243062000Y-40218000D02*
X244062000Y-40218000D01*
X243062000Y-38718000D02*
X243062000Y-42738000D01*
X258282000Y-42738000D02*
X258282000Y-38718000D01*
X257782000Y-42238000D02*
X243562000Y-42238000D01*
X258282000Y-40218000D02*
X257282000Y-40218000D01*
X258582000Y-38418000D02*
X256082000Y-38418000D01*
X257282000Y-40218000D02*
X257282000Y-38718000D01*
X258282000Y-41028000D02*
X257782000Y-41028000D01*
X243562000Y-42238000D02*
X243562000Y-41028000D01*
X243562000Y-41028000D02*
X243062000Y-41028000D01*
X258282000Y-38718000D02*
X243062000Y-38718000D01*
X244062000Y-40218000D02*
X244062000Y-38718000D01*
X243062000Y-42738000D02*
X258282000Y-42738000D01*
%TO.C,C1*%
X243499000Y-77249677D02*
X246255000Y-77249677D01*
X239887000Y-81209677D02*
X249867000Y-81209677D01*
X242668000Y-77569677D02*
X247086000Y-77569677D01*
X242438000Y-77689677D02*
X247316000Y-77689677D01*
X246118000Y-80529677D02*
X249688000Y-80529677D01*
X239895000Y-81169677D02*
X249859000Y-81169677D01*
X246118000Y-79169677D02*
X248987000Y-79169677D01*
X240040000Y-80609677D02*
X243636000Y-80609677D01*
X241237000Y-78609677D02*
X243636000Y-78609677D01*
X246118000Y-80409677D02*
X249645000Y-80409677D01*
X246118000Y-78969677D02*
X248834000Y-78969677D01*
X246118000Y-79929677D02*
X249441000Y-79929677D01*
X239873000Y-81289677D02*
X249881000Y-81289677D01*
X240630000Y-79369677D02*
X243636000Y-79369677D01*
X239859000Y-81369677D02*
X249895000Y-81369677D01*
X240415000Y-79729677D02*
X243636000Y-79729677D01*
X246118000Y-80049677D02*
X249498000Y-80049677D01*
X240554000Y-79489677D02*
X243636000Y-79489677D01*
X241988000Y-77969677D02*
X247766000Y-77969677D01*
X246118000Y-80489677D02*
X249674000Y-80489677D01*
X241053000Y-78809677D02*
X243636000Y-78809677D01*
X240003000Y-80729677D02*
X243636000Y-80729677D01*
X239812000Y-81770677D02*
X249942000Y-81770677D01*
X246118000Y-79849677D02*
X249402000Y-79849677D01*
X240123000Y-80369677D02*
X243636000Y-80369677D01*
X239921000Y-81049677D02*
X249833000Y-81049677D01*
X239799000Y-82010677D02*
X249955000Y-82010677D01*
X241877000Y-78049677D02*
X247877000Y-78049677D01*
X241198000Y-78649677D02*
X243636000Y-78649677D01*
X241357000Y-78489677D02*
X243636000Y-78489677D01*
X246118000Y-78769677D02*
X248666000Y-78769677D01*
X241932000Y-78009677D02*
X247822000Y-78009677D01*
X240797000Y-79129677D02*
X243636000Y-79129677D01*
X246118000Y-79649677D02*
X249294000Y-79649677D01*
X242588000Y-77609677D02*
X247166000Y-77609677D01*
X241088000Y-78769677D02*
X243636000Y-78769677D01*
X240394000Y-79769677D02*
X243636000Y-79769677D01*
X240220000Y-80129677D02*
X243636000Y-80129677D01*
X239827000Y-81610677D02*
X249927000Y-81610677D01*
X244015000Y-77129677D02*
X245739000Y-77129677D01*
X246118000Y-80729677D02*
X249751000Y-80729677D01*
X246118000Y-80449677D02*
X249660000Y-80449677D01*
X239842000Y-81490677D02*
X249912000Y-81490677D01*
X239866000Y-81329677D02*
X249888000Y-81329677D01*
X239939000Y-80969677D02*
X249815000Y-80969677D01*
X240139000Y-80329677D02*
X243636000Y-80329677D01*
X239903000Y-81129677D02*
X249851000Y-81129677D01*
X240437000Y-79689677D02*
X243636000Y-79689677D01*
X239837000Y-81530677D02*
X249917000Y-81530677D01*
X246118000Y-80849677D02*
X249784000Y-80849677D01*
X246118000Y-79329677D02*
X249098000Y-79329677D01*
X240985000Y-78889677D02*
X243636000Y-78889677D01*
X246118000Y-79689677D02*
X249317000Y-79689677D01*
X239930000Y-81009677D02*
X249824000Y-81009677D01*
X246118000Y-79129677D02*
X248957000Y-79129677D01*
X239797000Y-82090677D02*
X249957000Y-82090677D01*
X239980000Y-80809677D02*
X243636000Y-80809677D01*
X240109000Y-80409677D02*
X243636000Y-80409677D01*
X240187000Y-80209677D02*
X243636000Y-80209677D01*
X240530000Y-79529677D02*
X243636000Y-79529677D01*
X240352000Y-79849677D02*
X243636000Y-79849677D01*
X240293000Y-79969677D02*
X243636000Y-79969677D01*
X240506000Y-79569677D02*
X243636000Y-79569677D01*
X246118000Y-78889677D02*
X248769000Y-78889677D01*
X242512000Y-77649677D02*
X247242000Y-77649677D01*
X246118000Y-79209677D02*
X249015000Y-79209677D01*
X246118000Y-80009677D02*
X249480000Y-80009677D01*
X241441000Y-78409677D02*
X248313000Y-78409677D01*
X246118000Y-79289677D02*
X249071000Y-79289677D01*
X242002000Y-87650323D02*
X242002000Y-86650323D01*
X242232000Y-77809677D02*
X247522000Y-77809677D01*
X240332000Y-79889677D02*
X243636000Y-79889677D01*
X239807000Y-81850677D02*
X249947000Y-81850677D01*
X242840000Y-77489677D02*
X246914000Y-77489677D01*
X240256000Y-80049677D02*
X243636000Y-80049677D01*
X246118000Y-80289677D02*
X249600000Y-80289677D01*
X246118000Y-80169677D02*
X249551000Y-80169677D01*
X246118000Y-80209677D02*
X249567000Y-80209677D01*
X240767000Y-79169677D02*
X243636000Y-79169677D01*
X242298000Y-77769677D02*
X247456000Y-77769677D01*
X243647000Y-77209677D02*
X246107000Y-77209677D01*
X239800000Y-81970677D02*
X249954000Y-81970677D01*
X239959000Y-80889677D02*
X243636000Y-80889677D01*
X241623000Y-78249677D02*
X248131000Y-78249677D01*
X246118000Y-79609677D02*
X249272000Y-79609677D01*
X239832000Y-81570677D02*
X249922000Y-81570677D01*
X242933000Y-77449677D02*
X246821000Y-77449677D01*
X240827000Y-79089677D02*
X243636000Y-79089677D01*
X242047000Y-77929677D02*
X247707000Y-77929677D01*
X246118000Y-80689677D02*
X249739000Y-80689677D01*
X246118000Y-79809677D02*
X249381000Y-79809677D01*
X246118000Y-79729677D02*
X249339000Y-79729677D01*
X240579000Y-79449677D02*
X243636000Y-79449677D01*
X241721000Y-78169677D02*
X248033000Y-78169677D01*
X239970000Y-80849677D02*
X243636000Y-80849677D01*
X243247000Y-77329677D02*
X246507000Y-77329677D01*
X246118000Y-80329677D02*
X249615000Y-80329677D01*
X241485000Y-78369677D02*
X248269000Y-78369677D01*
X246118000Y-78649677D02*
X248556000Y-78649677D01*
X240482000Y-79609677D02*
X243636000Y-79609677D01*
X246118000Y-78729677D02*
X248630000Y-78729677D01*
X240683000Y-79289677D02*
X243636000Y-79289677D01*
X240460000Y-79649677D02*
X243636000Y-79649677D01*
X240154000Y-80289677D02*
X243636000Y-80289677D01*
X246118000Y-80769677D02*
X249762000Y-80769677D01*
X246118000Y-80889677D02*
X249795000Y-80889677D01*
X246118000Y-78849677D02*
X248735000Y-78849677D01*
X240203000Y-80169677D02*
X243636000Y-80169677D01*
X246118000Y-80249677D02*
X249584000Y-80249677D01*
X246118000Y-79529677D02*
X249224000Y-79529677D01*
X239912000Y-81089677D02*
X249842000Y-81089677D01*
X239798000Y-82050677D02*
X249956000Y-82050677D01*
X240952000Y-78929677D02*
X243636000Y-78929677D01*
X240066000Y-80529677D02*
X243636000Y-80529677D01*
X241823000Y-78089677D02*
X247931000Y-78089677D01*
X239797000Y-82170677D02*
X249957000Y-82170677D01*
X239804000Y-81890677D02*
X249950000Y-81890677D01*
X246118000Y-80369677D02*
X249631000Y-80369677D01*
X239815000Y-81730677D02*
X249939000Y-81730677D01*
X239802000Y-81930677D02*
X249952000Y-81930677D01*
X246118000Y-80809677D02*
X249774000Y-80809677D01*
X246118000Y-80569677D02*
X249701000Y-80569677D01*
X241576000Y-78289677D02*
X248178000Y-78289677D01*
X240373000Y-79809677D02*
X243636000Y-79809677D01*
X246118000Y-78929677D02*
X248802000Y-78929677D01*
X246118000Y-79009677D02*
X248866000Y-79009677D01*
X246118000Y-79969677D02*
X249461000Y-79969677D01*
X243815000Y-77169677D02*
X245939000Y-77169677D01*
X239880000Y-81249677D02*
X249874000Y-81249677D01*
X246118000Y-79049677D02*
X248897000Y-79049677D01*
X239823000Y-81650677D02*
X249931000Y-81650677D01*
X246118000Y-78489677D02*
X248397000Y-78489677D01*
X246118000Y-78449677D02*
X248355000Y-78449677D01*
X241316000Y-78529677D02*
X243636000Y-78529677D01*
X240888000Y-79009677D02*
X243636000Y-79009677D01*
X246118000Y-80609677D02*
X249714000Y-80609677D01*
X243031000Y-77409677D02*
X246723000Y-77409677D01*
X239992000Y-80769677D02*
X243636000Y-80769677D01*
X246118000Y-78529677D02*
X248438000Y-78529677D01*
X239819000Y-81690677D02*
X249935000Y-81690677D01*
X240920000Y-78969677D02*
X243636000Y-78969677D01*
X241161000Y-78689677D02*
X243636000Y-78689677D01*
X240053000Y-80569677D02*
X243636000Y-80569677D01*
X246118000Y-79769677D02*
X249360000Y-79769677D01*
X246118000Y-78689677D02*
X248593000Y-78689677D01*
X241530000Y-78329677D02*
X248224000Y-78329677D01*
X243135000Y-77369677D02*
X246619000Y-77369677D01*
X239809000Y-81810677D02*
X249945000Y-81810677D01*
X241502000Y-87150323D02*
X242502000Y-87150323D01*
X240711000Y-79249677D02*
X243636000Y-79249677D01*
X240274000Y-80009677D02*
X243636000Y-80009677D01*
X241124000Y-78729677D02*
X243636000Y-78729677D01*
X246118000Y-79409677D02*
X249150000Y-79409677D01*
X240857000Y-79049677D02*
X243636000Y-79049677D01*
X241276000Y-78569677D02*
X243636000Y-78569677D01*
X246118000Y-80649677D02*
X249727000Y-80649677D01*
X242107000Y-77889677D02*
X247647000Y-77889677D01*
X241671000Y-78209677D02*
X248083000Y-78209677D01*
X246118000Y-79249677D02*
X249043000Y-79249677D01*
X242367000Y-77729677D02*
X247387000Y-77729677D01*
X244278000Y-77089677D02*
X245476000Y-77089677D01*
X246118000Y-78569677D02*
X248478000Y-78569677D01*
X239847000Y-81449677D02*
X249907000Y-81449677D01*
X239853000Y-81409677D02*
X249901000Y-81409677D01*
X246118000Y-79369677D02*
X249124000Y-79369677D01*
X241771000Y-78129677D02*
X247983000Y-78129677D01*
X246118000Y-78609677D02*
X248517000Y-78609677D01*
X241399000Y-78449677D02*
X243636000Y-78449677D01*
X246118000Y-79489677D02*
X249200000Y-79489677D01*
X240313000Y-79929677D02*
X243636000Y-79929677D01*
X240170000Y-80249677D02*
X243636000Y-80249677D01*
X242752000Y-77529677D02*
X247002000Y-77529677D01*
X239797000Y-82130677D02*
X249957000Y-82130677D01*
X240015000Y-80689677D02*
X243636000Y-80689677D01*
X246118000Y-79089677D02*
X248927000Y-79089677D01*
X246118000Y-78809677D02*
X248701000Y-78809677D01*
X246118000Y-79449677D02*
X249175000Y-79449677D01*
X246118000Y-80129677D02*
X249534000Y-80129677D01*
X240094000Y-80449677D02*
X243636000Y-80449677D01*
X240739000Y-79209677D02*
X243636000Y-79209677D01*
X246118000Y-79569677D02*
X249248000Y-79569677D01*
X246118000Y-80089677D02*
X249516000Y-80089677D01*
X239949000Y-80929677D02*
X249805000Y-80929677D01*
X241019000Y-78849677D02*
X243636000Y-78849677D01*
X242168000Y-77849677D02*
X247586000Y-77849677D01*
X240604000Y-79409677D02*
X243636000Y-79409677D01*
X243367000Y-77289677D02*
X246387000Y-77289677D01*
X240080000Y-80489677D02*
X243636000Y-80489677D01*
X240238000Y-80089677D02*
X243636000Y-80089677D01*
X240656000Y-79329677D02*
X243636000Y-79329677D01*
X246118000Y-79889677D02*
X249422000Y-79889677D01*
X240027000Y-80649677D02*
X243636000Y-80649677D01*
X249997000Y-82170677D02*
G75*
G03*
X249997000Y-82170677I-5120000J0D01*
G01*
D10*
%TO.C,P4*%
X265838000Y-24806000D02*
X255678000Y-24806000D01*
X265838000Y-35006000D02*
X265838000Y-24806000D01*
X255678000Y-24806000D02*
X255678000Y-35006000D01*
X265838000Y-35006000D02*
X255678000Y-35006000D01*
%TO.C,P2*%
X265838000Y-110606000D02*
X265838000Y-100406000D01*
X250598000Y-100406000D02*
X250598000Y-110606000D01*
X250598000Y-100406000D02*
X265838000Y-100406000D01*
X250598000Y-110606000D02*
X265838000Y-110606000D01*
%TO.C,K1*%
X250208000Y-77198000D02*
X265708000Y-77198000D01*
X265708000Y-96298000D02*
X250208000Y-96298000D01*
X250208000Y-96298000D02*
X250208000Y-77198000D01*
X265708000Y-77198000D02*
X265708000Y-96298000D01*
D12*
%TO.C,TR1*%
X264094000Y-44136000D02*
X236594000Y-44136000D01*
X236594000Y-44136000D02*
X236594000Y-76636000D01*
X236594000Y-76636000D02*
X264094000Y-76636000D01*
X264094000Y-76636000D02*
X264094000Y-44136000D01*
%TD*%
D13*
%TO.C,P3*%
X242978000Y-29906000D03*
X237898000Y-29906000D03*
%TD*%
%TO.C,P1*%
X237898000Y-105506000D03*
X242978000Y-105506000D03*
%TD*%
%TO.C,P4*%
X263298000Y-29906000D03*
X258218000Y-29906000D03*
%TD*%
%TO.C,P2*%
X253138000Y-105506000D03*
X258218000Y-105506000D03*
X263298000Y-105506000D03*
%TD*%
D14*
%TO.C,K1*%
X263958000Y-80598000D03*
X251958000Y-80598000D03*
X257958000Y-78598000D03*
X263958000Y-92798000D03*
X251958000Y-92798000D03*
%TD*%
M02*
