%TF.GenerationSoftware,KiCad,Pcbnew,6.0.11+dfsg-1*%
%TF.CreationDate,2024-01-27T16:44:02+03:00*%
%TF.ProjectId,power,706f7765-722e-46b6-9963-61645f706362,rev?*%
%TF.SameCoordinates,Original*%
%TF.FileFunction,Legend,Bot*%
%TF.FilePolarity,Positive*%
%FSLAX46Y46*%
G04 Gerber Fmt 4.6, Leading zero omitted, Abs format (unit mm)*
G04 Created by KiCad (PCBNEW 6.0.11+dfsg-1) date 2024-01-27 16:44:02*
%MOMM*%
%LPD*%
G01*
G04 APERTURE LIST*
%TA.AperFunction,Profile*%
%ADD10C,0.100000*%
%TD*%
%ADD11C,0.150000*%
%ADD12C,0.120000*%
G04 APERTURE END LIST*
D10*
X234198000Y-111156000D02*
X266998000Y-111156000D01*
X266998000Y-111156000D02*
X266998000Y-24256000D01*
X266998000Y-24256000D02*
X234198000Y-24256000D01*
X234198000Y-24256000D02*
X234198000Y-111156000D01*
D11*
%TO.C,JP4*%
X264798380Y-41845666D02*
X265512666Y-41845666D01*
X265655523Y-41798047D01*
X265750761Y-41702809D01*
X265798380Y-41559952D01*
X265798380Y-41464714D01*
X265798380Y-42321857D02*
X264798380Y-42321857D01*
X264798380Y-42702809D01*
X264846000Y-42798047D01*
X264893619Y-42845666D01*
X264988857Y-42893285D01*
X265131714Y-42893285D01*
X265226952Y-42845666D01*
X265274571Y-42798047D01*
X265322190Y-42702809D01*
X265322190Y-42321857D01*
X265131714Y-43750428D02*
X265798380Y-43750428D01*
X264750761Y-43512333D02*
X265465047Y-43274238D01*
X265465047Y-43893285D01*
%TO.C,D2*%
X249647380Y-63530904D02*
X248647380Y-63530904D01*
X248647380Y-63769000D01*
X248695000Y-63911857D01*
X248790238Y-64007095D01*
X248885476Y-64054714D01*
X249075952Y-64102333D01*
X249218809Y-64102333D01*
X249409285Y-64054714D01*
X249504523Y-64007095D01*
X249599761Y-63911857D01*
X249647380Y-63769000D01*
X249647380Y-63530904D01*
X248742619Y-64483285D02*
X248695000Y-64530904D01*
X248647380Y-64626142D01*
X248647380Y-64864238D01*
X248695000Y-64959476D01*
X248742619Y-65007095D01*
X248837857Y-65054714D01*
X248933095Y-65054714D01*
X249075952Y-65007095D01*
X249647380Y-64435666D01*
X249647380Y-65054714D01*
%TO.C,D1*%
X259210095Y-68752380D02*
X259210095Y-67752380D01*
X258972000Y-67752380D01*
X258829142Y-67800000D01*
X258733904Y-67895238D01*
X258686285Y-67990476D01*
X258638666Y-68180952D01*
X258638666Y-68323809D01*
X258686285Y-68514285D01*
X258733904Y-68609523D01*
X258829142Y-68704761D01*
X258972000Y-68752380D01*
X259210095Y-68752380D01*
X257686285Y-68752380D02*
X258257714Y-68752380D01*
X257972000Y-68752380D02*
X257972000Y-67752380D01*
X258067238Y-67895238D01*
X258162476Y-67990476D01*
X258257714Y-68038095D01*
%TO.C,D3*%
X246726380Y-70229904D02*
X245726380Y-70229904D01*
X245726380Y-70468000D01*
X245774000Y-70610857D01*
X245869238Y-70706095D01*
X245964476Y-70753714D01*
X246154952Y-70801333D01*
X246297809Y-70801333D01*
X246488285Y-70753714D01*
X246583523Y-70706095D01*
X246678761Y-70610857D01*
X246726380Y-70468000D01*
X246726380Y-70229904D01*
X245726380Y-71134666D02*
X245726380Y-71753714D01*
X246107333Y-71420380D01*
X246107333Y-71563238D01*
X246154952Y-71658476D01*
X246202571Y-71706095D01*
X246297809Y-71753714D01*
X246535904Y-71753714D01*
X246631142Y-71706095D01*
X246678761Y-71658476D01*
X246726380Y-71563238D01*
X246726380Y-71277523D01*
X246678761Y-71182285D01*
X246631142Y-71134666D01*
%TO.C,D5*%
X263109380Y-38892904D02*
X262109380Y-38892904D01*
X262109380Y-39131000D01*
X262157000Y-39273857D01*
X262252238Y-39369095D01*
X262347476Y-39416714D01*
X262537952Y-39464333D01*
X262680809Y-39464333D01*
X262871285Y-39416714D01*
X262966523Y-39369095D01*
X263061761Y-39273857D01*
X263109380Y-39131000D01*
X263109380Y-38892904D01*
X262109380Y-40369095D02*
X262109380Y-39892904D01*
X262585571Y-39845285D01*
X262537952Y-39892904D01*
X262490333Y-39988142D01*
X262490333Y-40226238D01*
X262537952Y-40321476D01*
X262585571Y-40369095D01*
X262680809Y-40416714D01*
X262918904Y-40416714D01*
X263014142Y-40369095D01*
X263061761Y-40321476D01*
X263109380Y-40226238D01*
X263109380Y-39988142D01*
X263061761Y-39892904D01*
X263014142Y-39845285D01*
%TO.C,JP1*%
X256140380Y-63435666D02*
X256854666Y-63435666D01*
X256997523Y-63388047D01*
X257092761Y-63292809D01*
X257140380Y-63149952D01*
X257140380Y-63054714D01*
X257140380Y-63911857D02*
X256140380Y-63911857D01*
X256140380Y-64292809D01*
X256188000Y-64388047D01*
X256235619Y-64435666D01*
X256330857Y-64483285D01*
X256473714Y-64483285D01*
X256568952Y-64435666D01*
X256616571Y-64388047D01*
X256664190Y-64292809D01*
X256664190Y-63911857D01*
X257140380Y-65435666D02*
X257140380Y-64864238D01*
X257140380Y-65149952D02*
X256140380Y-65149952D01*
X256283238Y-65054714D01*
X256378476Y-64959476D01*
X256426095Y-64864238D01*
%TO.C,C2*%
X244408666Y-34019142D02*
X244456285Y-34066761D01*
X244599142Y-34114380D01*
X244694380Y-34114380D01*
X244837238Y-34066761D01*
X244932476Y-33971523D01*
X244980095Y-33876285D01*
X245027714Y-33685809D01*
X245027714Y-33542952D01*
X244980095Y-33352476D01*
X244932476Y-33257238D01*
X244837238Y-33162000D01*
X244694380Y-33114380D01*
X244599142Y-33114380D01*
X244456285Y-33162000D01*
X244408666Y-33209619D01*
X244027714Y-33209619D02*
X243980095Y-33162000D01*
X243884857Y-33114380D01*
X243646761Y-33114380D01*
X243551523Y-33162000D01*
X243503904Y-33209619D01*
X243456285Y-33304857D01*
X243456285Y-33400095D01*
X243503904Y-33542952D01*
X244075333Y-34114380D01*
X243456285Y-34114380D01*
%TO.C,D4*%
X266284380Y-48163904D02*
X265284380Y-48163904D01*
X265284380Y-48402000D01*
X265332000Y-48544857D01*
X265427238Y-48640095D01*
X265522476Y-48687714D01*
X265712952Y-48735333D01*
X265855809Y-48735333D01*
X266046285Y-48687714D01*
X266141523Y-48640095D01*
X266236761Y-48544857D01*
X266284380Y-48402000D01*
X266284380Y-48163904D01*
X265617714Y-49592476D02*
X266284380Y-49592476D01*
X265236761Y-49354380D02*
X265951047Y-49116285D01*
X265951047Y-49735333D01*
%TO.C,BD1*%
X255148238Y-56847428D02*
X255291095Y-56799809D01*
X255338714Y-56752190D01*
X255386333Y-56656952D01*
X255386333Y-56514095D01*
X255338714Y-56418857D01*
X255291095Y-56371238D01*
X255195857Y-56323619D01*
X254814904Y-56323619D01*
X254814904Y-57323619D01*
X255148238Y-57323619D01*
X255243476Y-57276000D01*
X255291095Y-57228380D01*
X255338714Y-57133142D01*
X255338714Y-57037904D01*
X255291095Y-56942666D01*
X255243476Y-56895047D01*
X255148238Y-56847428D01*
X254814904Y-56847428D01*
X255814904Y-56323619D02*
X255814904Y-57323619D01*
X256053000Y-57323619D01*
X256195857Y-57276000D01*
X256291095Y-57180761D01*
X256338714Y-57085523D01*
X256386333Y-56895047D01*
X256386333Y-56752190D01*
X256338714Y-56561714D01*
X256291095Y-56466476D01*
X256195857Y-56371238D01*
X256053000Y-56323619D01*
X255814904Y-56323619D01*
X257338714Y-56323619D02*
X256767285Y-56323619D01*
X257053000Y-56323619D02*
X257053000Y-57323619D01*
X256957761Y-57180761D01*
X256862523Y-57085523D01*
X256767285Y-57037904D01*
%TO.C,JP2*%
X253092380Y-68754666D02*
X253806666Y-68754666D01*
X253949523Y-68707047D01*
X254044761Y-68611809D01*
X254092380Y-68468952D01*
X254092380Y-68373714D01*
X254092380Y-69230857D02*
X253092380Y-69230857D01*
X253092380Y-69611809D01*
X253140000Y-69707047D01*
X253187619Y-69754666D01*
X253282857Y-69802285D01*
X253425714Y-69802285D01*
X253520952Y-69754666D01*
X253568571Y-69707047D01*
X253616190Y-69611809D01*
X253616190Y-69230857D01*
X253187619Y-70183238D02*
X253140000Y-70230857D01*
X253092380Y-70326095D01*
X253092380Y-70564190D01*
X253140000Y-70659428D01*
X253187619Y-70707047D01*
X253282857Y-70754666D01*
X253378095Y-70754666D01*
X253520952Y-70707047D01*
X254092380Y-70135619D01*
X254092380Y-70754666D01*
%TO.C,C3*%
X264474666Y-34400142D02*
X264522285Y-34447761D01*
X264665142Y-34495380D01*
X264760380Y-34495380D01*
X264903238Y-34447761D01*
X264998476Y-34352523D01*
X265046095Y-34257285D01*
X265093714Y-34066809D01*
X265093714Y-33923952D01*
X265046095Y-33733476D01*
X264998476Y-33638238D01*
X264903238Y-33543000D01*
X264760380Y-33495380D01*
X264665142Y-33495380D01*
X264522285Y-33543000D01*
X264474666Y-33590619D01*
X264141333Y-33495380D02*
X263522285Y-33495380D01*
X263855619Y-33876333D01*
X263712761Y-33876333D01*
X263617523Y-33923952D01*
X263569904Y-33971571D01*
X263522285Y-34066809D01*
X263522285Y-34304904D01*
X263569904Y-34400142D01*
X263617523Y-34447761D01*
X263712761Y-34495380D01*
X263998476Y-34495380D01*
X264093714Y-34447761D01*
X264141333Y-34400142D01*
%TO.C,JP3*%
X257410380Y-47941666D02*
X258124666Y-47941666D01*
X258267523Y-47894047D01*
X258362761Y-47798809D01*
X258410380Y-47655952D01*
X258410380Y-47560714D01*
X258410380Y-48417857D02*
X257410380Y-48417857D01*
X257410380Y-48798809D01*
X257458000Y-48894047D01*
X257505619Y-48941666D01*
X257600857Y-48989285D01*
X257743714Y-48989285D01*
X257838952Y-48941666D01*
X257886571Y-48894047D01*
X257934190Y-48798809D01*
X257934190Y-48417857D01*
X257410380Y-49322619D02*
X257410380Y-49941666D01*
X257791333Y-49608333D01*
X257791333Y-49751190D01*
X257838952Y-49846428D01*
X257886571Y-49894047D01*
X257981809Y-49941666D01*
X258219904Y-49941666D01*
X258315142Y-49894047D01*
X258362761Y-49846428D01*
X258410380Y-49751190D01*
X258410380Y-49465476D01*
X258362761Y-49370238D01*
X258315142Y-49322619D01*
D12*
%TO.C,JP4*%
X262546000Y-44079000D02*
X264546000Y-44079000D01*
X264546000Y-41279000D02*
X262546000Y-41279000D01*
X264546000Y-44079000D02*
X264546000Y-41279000D01*
X262546000Y-41279000D02*
X262546000Y-44079000D01*
%TO.C,D2*%
X253258000Y-67542000D02*
X253258000Y-62142000D01*
X253258000Y-67542000D02*
X249958000Y-67542000D01*
X249958000Y-67542000D02*
X249958000Y-62142000D01*
%TO.C,D1*%
X261872000Y-72450000D02*
X256472000Y-72450000D01*
X261872000Y-69150000D02*
X261872000Y-72450000D01*
X261872000Y-69150000D02*
X256472000Y-69150000D01*
%TO.C,D3*%
X250210000Y-75289000D02*
X246910000Y-75289000D01*
X250210000Y-75289000D02*
X250210000Y-69889000D01*
X246910000Y-75289000D02*
X246910000Y-69889000D01*
%TO.C,D5*%
X258340000Y-39660000D02*
X261640000Y-39660000D01*
X258340000Y-39660000D02*
X258340000Y-45060000D01*
X261640000Y-39660000D02*
X261640000Y-45060000D01*
%TO.C,JP1*%
X255783000Y-62869000D02*
X253783000Y-62869000D01*
X255783000Y-65669000D02*
X255783000Y-62869000D01*
X253783000Y-62869000D02*
X253783000Y-65669000D01*
X253783000Y-65669000D02*
X255783000Y-65669000D01*
%TO.C,C2*%
X241143252Y-34572000D02*
X239720748Y-34572000D01*
X241143252Y-32752000D02*
X239720748Y-32752000D01*
%TO.C,D4*%
X261896000Y-45756000D02*
X261896000Y-51156000D01*
X261896000Y-45756000D02*
X265196000Y-45756000D01*
X265196000Y-45756000D02*
X265196000Y-51156000D01*
%TO.C,BD1*%
X255531000Y-62205000D02*
X260131000Y-62205000D01*
X260131000Y-62205000D02*
X260131000Y-58205000D01*
X260131000Y-58205000D02*
X255531000Y-58205000D01*
X255531000Y-58205000D02*
X255531000Y-62205000D01*
%TO.C,JP2*%
X252735000Y-71384000D02*
X252735000Y-68584000D01*
X250735000Y-71384000D02*
X252735000Y-71384000D01*
X250735000Y-68584000D02*
X250735000Y-71384000D01*
X252735000Y-68584000D02*
X250735000Y-68584000D01*
%TO.C,C3*%
X261590252Y-32752000D02*
X260167748Y-32752000D01*
X261590252Y-34572000D02*
X260167748Y-34572000D01*
%TO.C,JP3*%
X258990000Y-47375000D02*
X258990000Y-50175000D01*
X260990000Y-47375000D02*
X258990000Y-47375000D01*
X260990000Y-50175000D02*
X260990000Y-47375000D01*
X258990000Y-50175000D02*
X260990000Y-50175000D01*
%TD*%
M02*
