%TF.GenerationSoftware,KiCad,Pcbnew,6.0.11+dfsg-1*%
%TF.CreationDate,2024-01-27T16:44:02+03:00*%
%TF.ProjectId,power,706f7765-722e-46b6-9963-61645f706362,rev?*%
%TF.SameCoordinates,Original*%
%TF.FileFunction,Copper,L2,Bot*%
%TF.FilePolarity,Positive*%
%FSLAX46Y46*%
G04 Gerber Fmt 4.6, Leading zero omitted, Abs format (unit mm)*
G04 Created by KiCad (PCBNEW 6.0.11+dfsg-1) date 2024-01-27 16:44:02*
%MOMM*%
%LPD*%
G01*
G04 APERTURE LIST*
G04 Aperture macros list*
%AMRoundRect*
0 Rectangle with rounded corners*
0 $1 Rounding radius*
0 $2 $3 $4 $5 $6 $7 $8 $9 X,Y pos of 4 corners*
0 Add a 4 corners polygon primitive as box body*
4,1,4,$2,$3,$4,$5,$6,$7,$8,$9,$2,$3,0*
0 Add four circle primitives for the rounded corners*
1,1,$1+$1,$2,$3*
1,1,$1+$1,$4,$5*
1,1,$1+$1,$6,$7*
1,1,$1+$1,$8,$9*
0 Add four rect primitives between the rounded corners*
20,1,$1+$1,$2,$3,$4,$5,0*
20,1,$1+$1,$4,$5,$6,$7,0*
20,1,$1+$1,$6,$7,$8,$9,0*
20,1,$1+$1,$8,$9,$2,$3,0*%
G04 Aperture macros list end*
%TA.AperFunction,Profile*%
%ADD10C,0.100000*%
%TD*%
%TA.AperFunction,ComponentPad*%
%ADD11C,3.000000*%
%TD*%
%TA.AperFunction,ComponentPad*%
%ADD12RoundRect,0.250000X0.600000X0.725000X-0.600000X0.725000X-0.600000X-0.725000X0.600000X-0.725000X0*%
%TD*%
%TA.AperFunction,ComponentPad*%
%ADD13O,1.700000X1.950000*%
%TD*%
%TA.AperFunction,ComponentPad*%
%ADD14R,2.000000X2.000000*%
%TD*%
%TA.AperFunction,ComponentPad*%
%ADD15C,2.000000*%
%TD*%
%TA.AperFunction,ComponentPad*%
%ADD16C,2.500000*%
%TD*%
%TA.AperFunction,SMDPad,CuDef*%
%ADD17R,1.500000X1.000000*%
%TD*%
%TA.AperFunction,SMDPad,CuDef*%
%ADD18R,1.800000X2.500000*%
%TD*%
%TA.AperFunction,SMDPad,CuDef*%
%ADD19R,2.500000X1.800000*%
%TD*%
%TA.AperFunction,SMDPad,CuDef*%
%ADD20RoundRect,0.250000X0.325000X0.650000X-0.325000X0.650000X-0.325000X-0.650000X0.325000X-0.650000X0*%
%TD*%
%TA.AperFunction,SMDPad,CuDef*%
%ADD21R,2.400000X0.900000*%
%TD*%
%TA.AperFunction,ViaPad*%
%ADD22C,2.000000*%
%TD*%
%TA.AperFunction,Conductor*%
%ADD23C,1.000000*%
%TD*%
%TA.AperFunction,Conductor*%
%ADD24C,0.800000*%
%TD*%
%TA.AperFunction,Conductor*%
%ADD25C,0.500000*%
%TD*%
%TA.AperFunction,Conductor*%
%ADD26C,2.000000*%
%TD*%
G04 APERTURE END LIST*
D10*
X234198000Y-111156000D02*
X266998000Y-111156000D01*
X266998000Y-111156000D02*
X266998000Y-24256000D01*
X266998000Y-24256000D02*
X234198000Y-24256000D01*
X234198000Y-24256000D02*
X234198000Y-111156000D01*
%TO.C,JP4*%
G36*
X263846000Y-42929000D02*
G01*
X263246000Y-42929000D01*
X263246000Y-42429000D01*
X263846000Y-42429000D01*
X263846000Y-42929000D01*
G37*
%TO.C,JP1*%
G36*
X255083000Y-64519000D02*
G01*
X254483000Y-64519000D01*
X254483000Y-64019000D01*
X255083000Y-64019000D01*
X255083000Y-64519000D01*
G37*
%TO.C,JP2*%
G36*
X252035000Y-70234000D02*
G01*
X251435000Y-70234000D01*
X251435000Y-69734000D01*
X252035000Y-69734000D01*
X252035000Y-70234000D01*
G37*
%TO.C,JP3*%
G36*
X260290000Y-49025000D02*
G01*
X259690000Y-49025000D01*
X259690000Y-48525000D01*
X260290000Y-48525000D01*
X260290000Y-49025000D01*
G37*
%TD*%
D11*
%TO.P,P3,1,P1*%
%TO.N,Net-(C2-Pad1)*%
X242978000Y-29906000D03*
%TO.P,P3,2,PM*%
%TO.N,GNDD*%
X237898000Y-29906000D03*
%TD*%
%TO.P,P1,1,P1*%
%TO.N,Net-(P1-Pad1)*%
X237898000Y-105506000D03*
%TO.P,P1,2,PM*%
%TO.N,Net-(P1-Pad2)*%
X242978000Y-105506000D03*
%TD*%
D12*
%TO.P,J1,1,Pin_1*%
%TO.N,Net-(D5-Pad1)*%
X255672000Y-41028000D03*
D13*
%TO.P,J1,2,Pin_2*%
%TO.N,Net-(D1-Pad2)*%
X253172000Y-41028000D03*
%TO.P,J1,3,Pin_3*%
%TO.N,Net-(C3-Pad1)*%
X250672000Y-41028000D03*
%TO.P,J1,4,Pin_4*%
%TO.N,Net-(C2-Pad1)*%
X248172000Y-41028000D03*
%TO.P,J1,5,Pin_5*%
%TO.N,GNDD*%
X245672000Y-41028000D03*
%TD*%
D14*
%TO.P,C1,1*%
%TO.N,VCC*%
X244877000Y-84670677D03*
D15*
%TO.P,C1,2*%
%TO.N,GNDD*%
X244877000Y-79670677D03*
%TD*%
D11*
%TO.P,P4,1,P1*%
%TO.N,Net-(C3-Pad1)*%
X263298000Y-29906000D03*
%TO.P,P4,2,PM*%
%TO.N,GNDD*%
X258218000Y-29906000D03*
%TD*%
%TO.P,P2,1,1*%
%TO.N,Net-(K1-Pad5)*%
X253138000Y-105506000D03*
%TO.P,P2,2,2*%
%TO.N,Net-(K1-Pad3)*%
X258218000Y-105506000D03*
%TO.P,P2,3,3*%
%TO.N,Net-(K1-Pad4)*%
X263298000Y-105506000D03*
%TD*%
D16*
%TO.P,K1,1,in1*%
%TO.N,VCC*%
X263958000Y-80598000D03*
%TO.P,K1,2,in2*%
%TO.N,Net-(D1-Pad2)*%
X251958000Y-80598000D03*
%TO.P,K1,3,out2*%
%TO.N,Net-(K1-Pad3)*%
X257958000Y-78598000D03*
%TO.P,K1,4,out1*%
%TO.N,Net-(K1-Pad4)*%
X263958000Y-92798000D03*
%TO.P,K1,5,out3*%
%TO.N,Net-(K1-Pad5)*%
X251958000Y-92798000D03*
%TD*%
D11*
%TO.P,TR1,1*%
%TO.N,Net-(P1-Pad1)*%
X240344000Y-50386000D03*
%TO.P,TR1,5*%
%TO.N,Net-(P1-Pad2)*%
X240344000Y-70386000D03*
%TO.P,TR1,7*%
%TO.N,Net-(BD1-Pad4)*%
X260344000Y-65386000D03*
%TO.P,TR1,9*%
%TO.N,Net-(BD1-Pad3)*%
X260344000Y-55386000D03*
%TD*%
D17*
%TO.P,JP4,1,A*%
%TO.N,Net-(D4-Pad1)*%
X263546000Y-43329000D03*
%TO.P,JP4,2,B*%
%TO.N,Net-(D5-Pad1)*%
X263546000Y-42029000D03*
%TD*%
D18*
%TO.P,D2,1,K*%
%TO.N,Net-(D2-Pad1)*%
X251608000Y-66142000D03*
%TO.P,D2,2,A*%
%TO.N,Net-(BD1-Pad1)*%
X251608000Y-62142000D03*
%TD*%
D19*
%TO.P,D1,1,K*%
%TO.N,VCC*%
X260472000Y-70800000D03*
%TO.P,D1,2,A*%
%TO.N,Net-(D1-Pad2)*%
X256472000Y-70800000D03*
%TD*%
D18*
%TO.P,D3,1,K*%
%TO.N,VCC*%
X248560000Y-73889000D03*
%TO.P,D3,2,A*%
%TO.N,Net-(D2-Pad1)*%
X248560000Y-69889000D03*
%TD*%
%TO.P,D5,1,K*%
%TO.N,Net-(D5-Pad1)*%
X259990000Y-41060000D03*
%TO.P,D5,2,A*%
%TO.N,Net-(D4-Pad1)*%
X259990000Y-45060000D03*
%TD*%
D17*
%TO.P,JP1,1,A*%
%TO.N,Net-(BD1-Pad1)*%
X254783000Y-63619000D03*
%TO.P,JP1,2,B*%
%TO.N,Net-(D2-Pad1)*%
X254783000Y-64919000D03*
%TD*%
D20*
%TO.P,C2,1*%
%TO.N,Net-(C2-Pad1)*%
X241907000Y-33662000D03*
%TO.P,C2,2*%
%TO.N,GNDD*%
X238957000Y-33662000D03*
%TD*%
D18*
%TO.P,D4,1,K*%
%TO.N,Net-(D4-Pad1)*%
X263546000Y-47156000D03*
%TO.P,D4,2,A*%
%TO.N,VCC*%
X263546000Y-51156000D03*
%TD*%
D21*
%TO.P,BD1,1,+*%
%TO.N,Net-(BD1-Pad1)*%
X254831000Y-61455000D03*
%TO.P,BD1,2,-*%
%TO.N,GNDD*%
X254831000Y-58955000D03*
%TO.P,BD1,3*%
%TO.N,Net-(BD1-Pad3)*%
X260831000Y-58955000D03*
%TO.P,BD1,4*%
%TO.N,Net-(BD1-Pad4)*%
X260831000Y-61455000D03*
%TD*%
D17*
%TO.P,JP2,1,A*%
%TO.N,Net-(D2-Pad1)*%
X251735000Y-69334000D03*
%TO.P,JP2,2,B*%
%TO.N,VCC*%
X251735000Y-70634000D03*
%TD*%
D20*
%TO.P,C3,1*%
%TO.N,Net-(C3-Pad1)*%
X262354000Y-33662000D03*
%TO.P,C3,2*%
%TO.N,GNDD*%
X259404000Y-33662000D03*
%TD*%
D17*
%TO.P,JP3,1,A*%
%TO.N,VCC*%
X259990000Y-49425000D03*
%TO.P,JP3,2,B*%
%TO.N,Net-(D4-Pad1)*%
X259990000Y-48125000D03*
%TD*%
D22*
%TO.N,VCC*%
X265070000Y-70746000D03*
X248941000Y-77731000D03*
%TD*%
D23*
%TO.N,Net-(P1-Pad1)*%
X238754000Y-50386000D02*
X240344000Y-50386000D01*
X237898000Y-105344000D02*
X235104000Y-102550000D01*
X235104000Y-54036000D02*
X238754000Y-50386000D01*
X235104000Y-102550000D02*
X235104000Y-54036000D01*
X237898000Y-105506000D02*
X237898000Y-105344000D01*
%TO.N,Net-(P1-Pad2)*%
X238654000Y-72076000D02*
X240344000Y-70386000D01*
X242978000Y-98946000D02*
X238654000Y-94622000D01*
X238654000Y-94622000D02*
X238654000Y-72076000D01*
X242978000Y-105506000D02*
X242978000Y-98946000D01*
%TO.N,GNDD*%
X237898000Y-29906000D02*
X237898000Y-27112000D01*
X258218000Y-29906000D02*
X258218000Y-32476000D01*
X237898000Y-27112000D02*
X238714000Y-26296000D01*
X249810000Y-47231000D02*
X249810000Y-58955000D01*
X242845000Y-41028000D02*
X245672000Y-41028000D01*
X256180000Y-26296000D02*
X258218000Y-28334000D01*
D24*
X249810000Y-58955000D02*
X254831000Y-58955000D01*
D23*
X245672000Y-43093000D02*
X249810000Y-47231000D01*
X238957000Y-37140000D02*
X242845000Y-41028000D01*
X245672000Y-41028000D02*
X245672000Y-43093000D01*
X237898000Y-29906000D02*
X237898000Y-32603000D01*
D24*
X246147000Y-75191000D02*
X246147000Y-66555000D01*
D23*
X238714000Y-26296000D02*
X256180000Y-26296000D01*
X238957000Y-33662000D02*
X238957000Y-37140000D01*
D24*
X244877000Y-76461000D02*
X246147000Y-75191000D01*
D23*
X258218000Y-28334000D02*
X258218000Y-29906000D01*
X258218000Y-32476000D02*
X259404000Y-33662000D01*
D24*
X248433000Y-60332000D02*
X249810000Y-58955000D01*
D23*
X237898000Y-32603000D02*
X238957000Y-33662000D01*
D24*
X246147000Y-66555000D02*
X248433000Y-64269000D01*
X248433000Y-64269000D02*
X248433000Y-60332000D01*
X244877000Y-79670677D02*
X244877000Y-76461000D01*
%TO.N,VCC*%
X248306000Y-82176000D02*
X245811323Y-84670677D01*
X245811323Y-84670677D02*
X244877000Y-84670677D01*
X249608000Y-73889000D02*
X248560000Y-73889000D01*
X265070000Y-54109000D02*
X263546000Y-52585000D01*
X248941000Y-77731000D02*
X248306000Y-78366000D01*
X251735000Y-70634000D02*
X251735000Y-71762000D01*
X260472000Y-70800000D02*
X265016000Y-70800000D01*
X248941000Y-77731000D02*
X248941000Y-74270000D01*
X265070000Y-70746000D02*
X265070000Y-54109000D01*
X265016000Y-70800000D02*
X265070000Y-70746000D01*
X248306000Y-78366000D02*
X248306000Y-82176000D01*
X260593000Y-51156000D02*
X263546000Y-51156000D01*
X263546000Y-52585000D02*
X263546000Y-51156000D01*
X259990000Y-49425000D02*
X259990000Y-50553000D01*
X248941000Y-74270000D02*
X248560000Y-73889000D01*
X265070000Y-70746000D02*
X265070000Y-79486000D01*
X259990000Y-50553000D02*
X260593000Y-51156000D01*
X251735000Y-71762000D02*
X249608000Y-73889000D01*
X265070000Y-79486000D02*
X263958000Y-80598000D01*
%TO.N,Net-(D1-Pad2)*%
X251958000Y-80598000D02*
X251958000Y-74587000D01*
X257704000Y-52966000D02*
X257704000Y-66047000D01*
X256472000Y-67355000D02*
X256472000Y-70800000D01*
X255745000Y-70800000D02*
X256472000Y-70800000D01*
X253172000Y-48434000D02*
X257704000Y-52966000D01*
X256434000Y-67317000D02*
X256472000Y-67355000D01*
X253172000Y-41028000D02*
X253172000Y-48434000D01*
X257704000Y-66047000D02*
X256434000Y-67317000D01*
X251958000Y-74587000D02*
X255745000Y-70800000D01*
D25*
%TO.N,Net-(C2-Pad1)*%
X248172000Y-39243000D02*
X242591000Y-33662000D01*
X248172000Y-41028000D02*
X248172000Y-39243000D01*
X242591000Y-33662000D02*
X241907000Y-33662000D01*
D24*
X242978000Y-29906000D02*
X242978000Y-32591000D01*
X242978000Y-32591000D02*
X241907000Y-33662000D01*
D25*
%TO.N,Net-(C3-Pad1)*%
X250672000Y-41028000D02*
X250672000Y-38789000D01*
X262354000Y-35489000D02*
X262354000Y-33662000D01*
X260879000Y-36964000D02*
X262354000Y-35489000D01*
D24*
X263298000Y-32718000D02*
X262354000Y-33662000D01*
X263298000Y-29906000D02*
X263298000Y-32718000D01*
D25*
X250672000Y-38789000D02*
X252497000Y-36964000D01*
X252497000Y-36964000D02*
X260879000Y-36964000D01*
D26*
%TO.N,Net-(K1-Pad3)*%
X257958000Y-78598000D02*
X257958000Y-105246000D01*
X257958000Y-105246000D02*
X258218000Y-105506000D01*
%TO.N,Net-(K1-Pad4)*%
X263958000Y-92798000D02*
X263958000Y-104846000D01*
X263958000Y-104846000D02*
X263298000Y-105506000D01*
%TO.N,Net-(K1-Pad5)*%
X251958000Y-92798000D02*
X251958000Y-104326000D01*
X251958000Y-104326000D02*
X253138000Y-105506000D01*
D24*
%TO.N,Net-(BD1-Pad3)*%
X260831000Y-58955000D02*
X260831000Y-55873000D01*
X260831000Y-55873000D02*
X260344000Y-55386000D01*
%TO.N,Net-(BD1-Pad4)*%
X260831000Y-64899000D02*
X260344000Y-65386000D01*
X260831000Y-61455000D02*
X260831000Y-64899000D01*
%TO.N,Net-(BD1-Pad1)*%
X252295000Y-61455000D02*
X251608000Y-62142000D01*
X254783000Y-61503000D02*
X254831000Y-61455000D01*
X254831000Y-61455000D02*
X252295000Y-61455000D01*
X254783000Y-63619000D02*
X254783000Y-61503000D01*
%TO.N,Net-(D2-Pad1)*%
X249115000Y-69334000D02*
X251735000Y-69334000D01*
X248560000Y-69889000D02*
X249115000Y-69334000D01*
X254783000Y-65666000D02*
X254783000Y-64919000D01*
X251608000Y-69207000D02*
X251735000Y-69334000D01*
X254307000Y-66142000D02*
X254783000Y-65666000D01*
X251608000Y-66142000D02*
X251608000Y-69207000D01*
X251608000Y-66142000D02*
X254307000Y-66142000D01*
%TO.N,Net-(D4-Pad1)*%
X259990000Y-46997000D02*
X259990000Y-48125000D01*
X263546000Y-43329000D02*
X263546000Y-47156000D01*
X263546000Y-47156000D02*
X260149000Y-47156000D01*
X260149000Y-47156000D02*
X259990000Y-46997000D01*
X259990000Y-45060000D02*
X259990000Y-46997000D01*
%TO.N,Net-(D5-Pad1)*%
X262816000Y-41060000D02*
X263546000Y-41790000D01*
X255672000Y-41028000D02*
X259958000Y-41028000D01*
X259958000Y-41028000D02*
X259990000Y-41060000D01*
X263546000Y-41790000D02*
X263546000Y-42029000D01*
X259990000Y-41060000D02*
X262816000Y-41060000D01*
%TD*%
M02*
